<?xml version="1.0" encoding="UTF-8" standalone="no"?><!-- Generator: Gravit.io --><svg xmlns="http://www.w3.org/2000/svg" xmlns:xlink="http://www.w3.org/1999/xlink" style="isolation:isolate" viewBox="0 0 1000 1000" width="1000pt" height="1000pt"><defs><clipPath id="_clipPath_eB5WY36zvrrPUy9JbUsOqro0cUn97Zyb"><rect width="1000" height="1000"/></clipPath></defs><g clip-path="url(#_clipPath_eB5WY36zvrrPUy9JbUsOqro0cUn97Zyb)"><g><path d=" M 438.623 957 L 249.211 957 L 59.797 450.431 L 249.211 450.431 L 438.623 957 Z " fill="rgb(21,21,21)"/><path d=" M 566.365 957 L 500.292 957 L 310.878 450.431 L 500.292 450.431 L 627.816 791.481 L 566.365 957 Z " fill="rgb(21,21,21)"/><path d=" M 847.511 711.672 L 945.196 450.428 L 755.782 450.428 L 658.124 711.603 L 847.511 711.672 Z " fill="rgb(21,21,21)"/><path d=" M 687.572 381.772 L 507.102 381.772 C 507.102 381.772 505.759 284.362 369.082 284.362 C 232.408 284.362 235.481 403.687 235.481 403.687 L 55.011 403.687 C 55.011 403.687 48.256 113.028 367.642 113.028 C 687.03 113.028 687.572 381.772 687.572 381.772 Z " fill="rgb(21,21,21)"/></g></g></svg>